<?xml version="1.0" encoding="UTF-8" standalone="no"?>
<!DOCTYPE svg PUBLIC "-//W3C//DTD SVG 1.1//EN" "http://www.w3.org/Graphics/SVG/1.1/DTD/svg11.dtd">
<svg width="100%" height="100%" viewBox="0 0 300 300" version="1.1" xmlns="http://www.w3.org/2000/svg" xmlns:xlink="http://www.w3.org/1999/xlink" xml:space="preserve" xmlns:serif="http://www.serif.com/" style="fill-rule:evenodd;clip-rule:evenodd;stroke-linejoin:round;stroke-miterlimit:2;">
    <g transform="matrix(1,0,0,1,-2100,-600)">
        <g>
            <g transform="matrix(1.05263,0,0,1.05263,-47.3684,-1942.11)">
                <circle cx="2182.5" cy="2557.5" r="142.5" style="fill:rgb(0,52,145);"/>
            </g>
            <g transform="matrix(4.78791,0,0,4.78791,-6919.73,-11264.7)">
                <g transform="matrix(50,0,0,50,1898.75,2527.01)">
                    <path d="M0.041,-0.264L0.132,-0.264C0.167,-0.096 0.305,-0.01 0.495,-0.01C0.531,-0.01 0.567,-0.014 0.592,-0.021L0.592,-0.138C0.568,-0.133 0.53,-0.131 0.5,-0.131C0.389,-0.131 0.31,-0.174 0.28,-0.264L0.547,-0.264L0.547,-0.313L0.27,-0.313C0.268,-0.325 0.268,-0.338 0.268,-0.352L0.268,-0.353C0.268,-0.368 0.268,-0.382 0.27,-0.396L0.547,-0.396L0.547,-0.444L0.281,-0.444C0.312,-0.532 0.39,-0.575 0.5,-0.575C0.53,-0.575 0.568,-0.572 0.592,-0.568L0.592,-0.685C0.567,-0.691 0.531,-0.695 0.495,-0.695C0.306,-0.695 0.168,-0.611 0.133,-0.444L0.041,-0.444L0.041,-0.396L0.125,-0.396C0.125,-0.382 0.124,-0.368 0.124,-0.354L0.124,-0.353C0.124,-0.339 0.125,-0.325 0.125,-0.313L0.041,-0.313L0.041,-0.264Z" style="fill:rgb(247,197,51);fill-rule:nonzero;"/>
                </g>
            </g>
        </g>
    </g>
</svg>
