<?xml version="1.0" encoding="UTF-8" standalone="no"?>
<!DOCTYPE svg PUBLIC "-//W3C//DTD SVG 1.1//EN" "http://www.w3.org/Graphics/SVG/1.1/DTD/svg11.dtd">
<svg width="100%" height="100%" viewBox="0 0 300 300" version="1.1" xmlns="http://www.w3.org/2000/svg" xmlns:xlink="http://www.w3.org/1999/xlink" xml:space="preserve" xmlns:serif="http://www.serif.com/" style="fill-rule:evenodd;clip-rule:evenodd;stroke-linejoin:round;stroke-miterlimit:2;">
    <g transform="matrix(1,0,0,1,-2100,-600)">
        <g>
            <g transform="matrix(1.05263,0,0,1.05263,-47.3684,-1942.11)">
                <circle cx="2182.5" cy="2557.5" r="142.5" style="fill:rgb(76,44,0);"/>
            </g>
            <g transform="matrix(1,0,0,1,0.0896196,69.4306)">
                <g transform="matrix(1,0,0,0.914195,0.0134886,42.9186)">
                    <path d="M2279.06,669.891C2279.29,671.145 2278.99,672.446 2278.25,673.436C2277.51,674.426 2276.41,675 2275.24,675C2263.96,675 2235.74,675 2224.62,675C2223.48,675 2222.41,674.444 2221.69,673.485C2220.97,672.526 2220.69,671.266 2220.91,670.051C2222.61,660.827 2226.22,641.231 2227.67,633.368C2228.03,631.409 2229.6,630 2231.43,630C2239.46,630 2260.67,630 2268.63,630C2270.42,630 2271.97,631.382 2272.32,633.304C2273.75,641.078 2277.34,660.577 2279.06,669.891Z" style="fill:rgb(255,219,112);"/>
                </g>
                <g transform="matrix(1,0,0,0.914195,30.8641,84.0574)">
                    <path d="M2279.06,669.891C2279.29,671.145 2278.99,672.446 2278.25,673.436C2277.51,674.426 2276.41,675 2275.24,675C2263.96,675 2235.74,675 2224.62,675C2223.48,675 2222.41,674.444 2221.69,673.485C2220.97,672.526 2220.69,671.266 2220.91,670.051C2222.61,660.827 2226.22,641.231 2227.67,633.368C2228.03,631.409 2229.6,630 2231.43,630C2239.46,630 2260.67,630 2268.63,630C2270.42,630 2271.97,631.382 2272.32,633.304C2273.75,641.078 2277.34,660.577 2279.06,669.891Z" style="fill:rgb(255,219,112);"/>
                </g>
                <g transform="matrix(1,0,0,0.914195,0.0134886,125.196)">
                    <path d="M2279.06,669.891C2279.29,671.145 2278.99,672.446 2278.25,673.436C2277.51,674.426 2276.41,675 2275.24,675C2263.96,675 2235.74,675 2224.62,675C2223.48,675 2222.41,674.444 2221.69,673.485C2220.97,672.526 2220.69,671.266 2220.91,670.051C2222.61,660.827 2226.22,641.231 2227.67,633.368C2228.03,631.409 2229.6,630 2231.43,630C2239.46,630 2260.67,630 2268.63,630C2270.42,630 2271.97,631.382 2272.32,633.304C2273.75,641.078 2277.34,660.577 2279.06,669.891Z" style="fill:rgb(255,219,112);"/>
                </g>
                <g transform="matrix(1,0,0,0.914195,63.2796,125.196)">
                    <path d="M2279.06,669.891C2279.29,671.145 2278.99,672.446 2278.25,673.436C2277.51,674.426 2276.41,675 2275.24,675C2263.96,675 2235.74,675 2224.62,675C2223.48,675 2222.41,674.444 2221.69,673.485C2220.97,672.526 2220.69,671.266 2220.91,670.051C2222.61,660.827 2226.22,641.231 2227.67,633.368C2228.03,631.409 2229.6,630 2231.43,630C2239.46,630 2260.67,630 2268.63,630C2270.42,630 2271.97,631.382 2272.32,633.304C2273.75,641.078 2277.34,660.577 2279.06,669.891Z" style="fill:rgb(255,219,112);"/>
                </g>
                <g transform="matrix(1,0,0,0.914195,-63.4319,125.196)">
                    <path d="M2279.06,669.891C2279.29,671.145 2278.99,672.446 2278.25,673.436C2277.51,674.426 2276.41,675 2275.24,675C2263.96,675 2235.74,675 2224.62,675C2223.48,675 2222.41,674.444 2221.69,673.485C2220.97,672.526 2220.69,671.266 2220.91,670.051C2222.61,660.827 2226.22,641.231 2227.67,633.368C2228.03,631.409 2229.6,630 2231.43,630C2239.46,630 2260.67,630 2268.63,630C2270.42,630 2271.97,631.382 2272.32,633.304C2273.75,641.078 2277.34,660.577 2279.06,669.891Z" style="fill:rgb(255,219,112);"/>
                </g>
                <g transform="matrix(1,0,0,0.914195,-30.8372,84.0574)">
                    <path d="M2279.06,669.891C2279.29,671.145 2278.99,672.446 2278.25,673.436C2277.51,674.426 2276.41,675 2275.24,675C2263.96,675 2235.74,675 2224.62,675C2223.48,675 2222.41,674.444 2221.69,673.485C2220.97,672.526 2220.69,671.266 2220.91,670.051C2222.61,660.827 2226.22,641.231 2227.67,633.368C2228.03,631.409 2229.6,630 2231.43,630C2239.46,630 2260.67,630 2268.63,630C2270.42,630 2271.97,631.382 2272.32,633.304C2273.75,641.078 2277.34,660.577 2279.06,669.891Z" style="fill:rgb(255,219,112);"/>
                </g>
            </g>
        </g>
    </g>
</svg>
