<?xml version="1.0" standalone="no"?>
<!DOCTYPE svg PUBLIC "-//W3C//DTD SVG 20010904//EN"
 "http://www.w3.org/TR/2001/REC-SVG-20010904/DTD/svg10.dtd">
<svg version="1.0" xmlns="http://www.w3.org/2000/svg"
 width="700.000000pt" height="700.000000pt" viewBox="0 0 700.000000 700.000000"
 preserveAspectRatio="xMidYMid meet">
<metadata>
Created by potrace 1.14, written by Peter Selinger 2001-2017
</metadata>
<g transform="translate(0.000000,700.000000) scale(0.100000,-0.100000)"
fill="#000000" stroke="none">
<path d="M1560 6990 c-25 -4 -63 -10 -85 -13 -343 -49 -688 -224 -944 -477
-115 -113 -134 -136 -211 -243 -162 -227 -274 -520 -308 -802 -9 -80 -9 -3820
0 -3910 4 -38 10 -81 13 -95 3 -14 10 -48 16 -77 18 -93 79 -265 134 -380 261
-545 782 -913 1390 -982 90 -11 3865 -9 3905 1 23 6 40 9 135 24 17 3 64 14
105 26 381 105 712 333 958 663 146 195 272 500 308 742 3 26 9 57 13 68 9 32
11 3844 1 3905 -5 30 -11 73 -14 95 -6 45 -13 78 -20 103 -3 9 -7 28 -10 42
-2 14 -9 37 -15 53 -6 15 -9 27 -7 27 16 0 -111 282 -185 410 -96 168 -310
391 -499 522 -191 131 -431 233 -643 273 -46 8 -98 19 -117 22 -48 10 -3864
12 -3920 3z"/>
</g>
</svg>
