<?xml version="1.0" encoding="UTF-8" standalone="no"?>
<!DOCTYPE svg PUBLIC "-//W3C//DTD SVG 1.1//EN" "http://www.w3.org/Graphics/SVG/1.1/DTD/svg11.dtd">
<svg width="100%" height="100%" viewBox="0 0 960 300" version="1.1" xmlns="http://www.w3.org/2000/svg" xmlns:xlink="http://www.w3.org/1999/xlink" xml:space="preserve" xmlns:serif="http://www.serif.com/" style="fill-rule:evenodd;clip-rule:evenodd;stroke-linejoin:round;stroke-miterlimit:2;">
    <g transform="matrix(1,0,0,1,-300,-2400)">
        <g transform="matrix(-1,-1.22465e-16,1.22465e-16,-1,2400,5400)">
            <g transform="matrix(6.12323e-17,-1,1,6.12323e-17,-915,3600)">
                <rect x="600" y="2790" width="300" height="75" style="fill:rgb(26,162,28);"/>
            </g>
            <g transform="matrix(6.12323e-17,-1,1,6.12323e-17,-840,3600)">
                <rect x="600" y="2790" width="300" height="75" style="fill:rgb(20,125,21);"/>
            </g>
            <g transform="matrix(6.12323e-17,-1,1,6.12323e-17,-900,3600)">
                <path d="M899.998,2925.49L900,2925L600,2925C600,2966.39 633.606,3000 675,3000L825,3000C866.232,3000 899.738,2966.66 899.998,2925.49Z" style="fill:rgb(12,76,13);"/>
            </g>
            <g transform="matrix(6.12323e-17,-1,1,6.12323e-17,-900,3600)">
                <path d="M600,2775L900,2775L899.998,2774.51C899.738,2733.35 866.232,2700 825,2700L675,2700C633.606,2700 600,2733.61 600,2775Z" style="fill:rgb(33,204,35);"/>
            </g>
        </g>
        <g transform="matrix(5.3093,0,0,5.3093,-5177.8,-12225.8)">
            <g transform="matrix(50,0,0,50,1103.6,2802.28)">
                <path d="M0.45,0.01C0.396,0.01 0.345,-0 0.299,-0.021C0.252,-0.041 0.211,-0.069 0.176,-0.106C0.14,-0.142 0.113,-0.184 0.094,-0.233C0.074,-0.282 0.064,-0.334 0.064,-0.391C0.064,-0.447 0.074,-0.499 0.094,-0.548C0.113,-0.596 0.14,-0.638 0.176,-0.675C0.211,-0.711 0.251,-0.739 0.298,-0.76C0.345,-0.781 0.395,-0.791 0.45,-0.791C0.501,-0.791 0.546,-0.784 0.583,-0.771C0.62,-0.758 0.657,-0.736 0.694,-0.705C0.699,-0.701 0.704,-0.697 0.707,-0.693C0.709,-0.688 0.712,-0.684 0.713,-0.68C0.713,-0.675 0.714,-0.67 0.714,-0.664C0.714,-0.651 0.709,-0.641 0.701,-0.633C0.692,-0.624 0.681,-0.62 0.668,-0.619C0.655,-0.618 0.643,-0.622 0.631,-0.631C0.606,-0.652 0.581,-0.669 0.555,-0.68C0.528,-0.691 0.493,-0.697 0.45,-0.697C0.411,-0.697 0.374,-0.689 0.339,-0.673C0.304,-0.657 0.274,-0.635 0.248,-0.607C0.221,-0.579 0.201,-0.547 0.186,-0.51C0.171,-0.472 0.164,-0.433 0.164,-0.391C0.164,-0.348 0.171,-0.309 0.186,-0.272C0.201,-0.235 0.221,-0.202 0.248,-0.174C0.274,-0.146 0.304,-0.124 0.339,-0.109C0.374,-0.093 0.411,-0.085 0.45,-0.085C0.484,-0.085 0.516,-0.091 0.547,-0.103C0.577,-0.114 0.606,-0.13 0.634,-0.151C0.646,-0.16 0.658,-0.164 0.67,-0.163C0.681,-0.162 0.691,-0.157 0.699,-0.149C0.707,-0.14 0.711,-0.129 0.711,-0.114C0.711,-0.107 0.71,-0.101 0.707,-0.095C0.704,-0.088 0.7,-0.082 0.695,-0.077C0.659,-0.048 0.62,-0.027 0.58,-0.012C0.539,0.003 0.495,0.01 0.45,0.01Z" style="fill:white;fill-rule:nonzero;"/>
            </g>
            <g transform="matrix(50,0,0,50,1144.5,2802.28)">
                <path d="M0.069,-0C0.05,-0 0.036,-0.008 0.026,-0.024C0.016,-0.04 0.015,-0.057 0.023,-0.075L0.304,-0.746C0.314,-0.769 0.33,-0.781 0.353,-0.781C0.377,-0.781 0.393,-0.769 0.402,-0.746L0.684,-0.073C0.691,-0.054 0.69,-0.038 0.681,-0.023C0.671,-0.008 0.656,-0 0.637,-0C0.627,-0 0.618,-0.003 0.609,-0.009C0.6,-0.014 0.593,-0.022 0.589,-0.032L0.341,-0.648L0.369,-0.648L0.117,-0.032C0.112,-0.021 0.106,-0.013 0.097,-0.008C0.088,-0.003 0.078,-0 0.069,-0ZM0.122,-0.172L0.162,-0.258L0.554,-0.258L0.594,-0.172L0.122,-0.172Z" style="fill:white;fill-rule:nonzero;"/>
            </g>
            <g transform="matrix(50,0,0,50,1182.15,2802.28)">
                <path d="M0.152,-0C0.137,-0 0.125,-0.005 0.115,-0.015C0.105,-0.025 0.1,-0.037 0.1,-0.052L0.1,-0.729C0.1,-0.744 0.105,-0.757 0.115,-0.766C0.125,-0.776 0.137,-0.781 0.152,-0.781L0.352,-0.781C0.402,-0.781 0.446,-0.77 0.485,-0.748C0.524,-0.726 0.554,-0.695 0.575,-0.657C0.597,-0.618 0.608,-0.573 0.608,-0.522C0.608,-0.473 0.597,-0.43 0.576,-0.392C0.554,-0.354 0.524,-0.324 0.485,-0.303C0.446,-0.282 0.402,-0.271 0.352,-0.271L0.204,-0.271L0.204,-0.052C0.204,-0.037 0.199,-0.025 0.189,-0.015C0.18,-0.005 0.167,-0 0.152,-0ZM0.204,-0.367L0.352,-0.367C0.383,-0.367 0.41,-0.374 0.433,-0.387C0.456,-0.4 0.475,-0.419 0.488,-0.442C0.501,-0.466 0.508,-0.492 0.508,-0.522C0.508,-0.554 0.501,-0.582 0.488,-0.607C0.475,-0.631 0.457,-0.65 0.433,-0.664C0.41,-0.678 0.383,-0.685 0.352,-0.685L0.204,-0.685L0.204,-0.367Z" style="fill:white;fill-rule:nonzero;"/>
            </g>
        </g>
    </g>
</svg>
