<svg width="154" height="16" viewBox="0 0 154 16" fill="none" xmlns="http://www.w3.org/2000/svg">
<path d="M8.27602 13.4169V15.7426H4.84163C3.56561 15.7426 2.52941 14.7064 2.52941 13.4304V7.16346H0V4.88292H2.52489V1.625H5.13122V4.88292H8.27602V7.16346H5.13122V13.4169H8.27602Z" fill="#F9F9F9"/>
<path d="M9.3667 10.3189C9.3667 6.99767 11.7332 4.67188 14.9052 4.67188C18.0771 4.67188 20.4436 6.99767 20.4436 10.3189C20.4436 13.6402 18.0771 15.966 14.9052 15.966C11.7332 15.966 9.3667 13.6447 9.3667 10.3189ZM17.8373 10.3189C17.8373 8.36418 16.5794 7.06101 14.9052 7.06101C13.231 7.06101 11.973 8.36418 11.973 10.3189C11.973 12.2737 13.231 13.5769 14.9052 13.5769C16.5794 13.5769 17.8373 12.2737 17.8373 10.3189Z" fill="#F9F9F9"/>
<path d="M24.8778 10.0362V15.7466H22.2715V0H24.8778V9.62443L29.0905 4.8914H32.5204L27.7466 9.819L32.8054 15.7466H29.5475L24.8778 10.0362Z" fill="#F9F9F9"/>
<path d="M43.4071 11.1877H35.2442C35.5247 12.7714 36.57 13.6854 38.1763 13.6854C39.3256 13.6854 39.9998 13.2511 40.3483 12.4909H43.1718C42.5202 14.7488 40.6288 15.966 38.0677 15.966C34.9636 15.966 32.6831 13.6402 32.6831 10.3189C32.6831 6.99767 34.9636 4.67188 38.0677 4.67188C41.1718 4.67188 43.4569 6.99767 43.4569 10.3189C43.4523 10.6221 43.4297 10.9072 43.4071 11.1877ZM35.2623 9.34156H40.8686C40.5881 7.8212 39.5881 6.95242 38.0677 6.95242C36.5474 6.95242 35.5474 7.8212 35.2623 9.34156Z" fill="#F9F9F9"/>
<path d="M47.8866 15.7488H45.2803V4.88907H47.8866V6.45468C48.5608 5.30536 49.6694 4.67188 51.0133 4.67188C53.3165 4.67188 55.054 6.19224 55.054 9.25558V15.7488H52.4477V9.77595C52.4477 7.95242 51.5789 6.95242 50.1672 6.95242C48.7554 6.95242 47.8866 7.95242 47.8866 9.77595V15.7488Z" fill="#F9F9F9"/>
<path d="M70.8008 13.4169V15.7426H67.3664C66.0904 15.7426 65.0542 14.7064 65.0542 13.4304V7.16346H62.5293V4.88292H65.0542V1.625H67.6605V4.88292H70.8053V7.16346H67.6605V13.4169H70.8008Z" fill="#F9F9F9"/>
<path d="M82.6694 11.1877H74.502C74.7825 12.7714 75.8278 13.6854 77.4341 13.6854C78.5834 13.6854 79.2577 13.2511 79.6061 12.4909H82.4296C81.778 14.7488 79.8866 15.966 77.3255 15.966C74.2215 15.966 71.9409 13.6402 71.9409 10.3189C71.9409 6.99767 74.2215 4.67188 77.3255 4.67188C80.4296 4.67188 82.7147 6.99767 82.7147 10.3189C82.7147 10.6221 82.692 10.9072 82.6694 11.1877ZM74.5246 9.34156H80.131C79.8504 7.8212 78.8504 6.95242 77.3301 6.95242C75.8052 6.95242 74.8052 7.8212 74.5246 9.34156Z" fill="#F9F9F9"/>
<path d="M95.4476 15.7488H92.8413V4.88907H95.4476V6.30083C96.0766 5.26011 97.1219 4.67188 98.3571 4.67188C99.8323 4.67188 101.072 5.34608 101.701 6.67187C102.353 5.39133 103.592 4.67188 105.09 4.67188C107.285 4.67188 108.914 6.12889 108.914 9.03839V15.7488H106.307V9.55875C106.307 7.86644 105.525 6.95242 104.244 6.95242C102.963 6.95242 102.181 7.86644 102.181 9.55875V15.7488H99.5743V9.55875C99.5743 7.86644 98.7915 6.95242 97.511 6.95242C96.2305 6.95242 95.4476 7.86644 95.4476 9.55875V15.7488Z" fill="#F9F9F9"/>
<path d="M111.068 1.62896C111.068 0.696832 111.765 0 112.697 0C113.652 0 114.326 0.696832 114.326 1.62896C114.326 2.54299 113.652 3.25792 112.697 3.25792C111.765 3.25792 111.068 2.54299 111.068 1.62896Z" fill="#F9F9F9"/>
<path d="M114 4.88281H111.394V15.7425H114V4.88281Z" fill="#F9F9F9"/>
<path d="M119.195 15.7488H116.588V4.88907H119.195V6.45468C119.869 5.30536 120.978 4.67188 122.321 4.67188C124.625 4.67188 126.362 6.19224 126.362 9.25558V15.7488H123.756V9.77595C123.756 7.95242 122.887 6.95242 121.475 6.95242C120.063 6.95242 119.195 7.95242 119.195 9.77595V15.7488Z" fill="#F9F9F9"/>
<path d="M135.403 14.1425C134.706 15.423 133.448 15.966 131.95 15.966C130.082 15.966 128.303 15.0339 128.303 12.8393C128.303 8.16961 135.362 10.2556 135.362 8.08364C135.362 7.23749 134.493 6.73522 133.362 6.73522C132.167 6.73522 131.344 7.36418 131.344 8.58138H128.629C128.629 5.75785 130.932 4.67188 133.362 4.67188C135.751 4.67188 137.968 5.64925 137.968 8.19224V15.7488H135.403V14.1425ZM132.489 13.794C134.009 13.794 135.398 12.9253 135.398 11.2737V10.7759C133.661 11.4909 130.968 11.2737 130.968 12.6673C130.968 13.4275 131.62 13.794 132.489 13.794Z" fill="#F9F9F9"/>
<path d="M140.335 15.7466V0H142.941V15.7466H140.335Z" fill="#F9F9F9"/>
<path d="M90.2264 7.40565H91.3395V4.86719H90.4752C89.1449 4.86719 87.8644 5.50972 87.163 6.64094L87.1449 6.66809V4.90791H84.5386V15.7676H87.1449V10.2292C87.1449 8.40565 88.2761 7.40565 90.2083 7.40565C90.2173 7.40565 90.2218 7.40565 90.2264 7.40565Z" fill="#F9F9F9"/>
<path d="M145.312 15.7444V13.4141H154V15.7444H145.312Z" fill="#00CF9D"/>
</svg>
